<svg width="28" height="34" viewBox="0 0 28 34" fill="none" xmlns="http://www.w3.org/2000/svg">
<path d="M17.0659 5.38377V2.80621C17.0659 0.935405 17.991 0 19.8514 0C21.7222 0 22.6576 0.935405 22.6576 2.80621V5.38377H24.0087C26.1134 5.38377 27.1683 6.4387 27.1683 8.54336C27.1683 10.6532 26.1134 11.703 24.0087 11.703H22.6576V18.3131C23.832 18.7185 25.0896 19.2589 26.42 19.9345C27.7607 20.8803 28.0933 22.1379 27.4178 23.7177C26.6123 25.2299 25.6197 25.6093 24.4452 24.861C24.0139 24.57 23.4163 24.2893 22.6576 24.0087V26.5447C22.6576 28.4883 22.325 29.9485 21.6598 30.9307C21.005 31.9129 20.1476 32.5833 19.0823 32.947C18.0117 33.3056 16.9724 33.4875 15.9642 33.4875C14.6443 33.5395 13.3867 33.342 12.181 32.8847C10.9858 32.4378 9.99844 31.6479 9.20854 30.515C8.42904 29.3821 8.04448 27.8023 8.04448 25.7756C8.07046 23.0889 8.83957 21.005 10.3518 19.5188C11.8744 18.0221 14.1142 17.3725 17.0659 17.5648V11.703H11.6198C9.50995 11.703 8.46022 10.6532 8.46022 8.54336C8.46022 6.4387 9.50995 5.38377 11.6198 5.38377H17.0659ZM15.9642 27.8543C16.38 27.8283 16.6606 27.662 16.8165 27.3554C16.9828 27.0384 17.0659 26.5967 17.0659 26.025V22.8654C15.7772 22.6472 14.7898 22.7979 14.1142 23.3228C13.4335 23.8372 13.0541 24.5596 12.9709 25.4846C12.9138 26.3888 13.158 27.0332 13.6985 27.4178C14.2493 27.7919 15.008 27.9374 15.9642 27.8543ZM0.997765 3.03487C1.37193 1.28878 2.56717 0.472899 4.59388 0.58203C6.35036 0.61321 7.17663 1.59539 7.0675 3.53375C6.87003 4.82253 6.67775 6.65177 6.48547 9.02146C6.288 11.3808 6.17887 13.8596 6.15288 16.4631C6.17887 19.2226 6.288 21.7845 6.48547 24.1542C6.67775 26.5239 6.87003 28.348 7.0675 29.6212C7.17663 31.5647 6.35036 32.5417 4.59388 32.5729C2.56717 32.682 1.37193 31.8661 0.997765 30.12C0.748324 28.5298 0.524866 26.5447 0.332588 24.175C0.135113 21.8209 0.0259831 19.3057 0 16.6294V16.5878C0.0259831 13.8752 0.135113 11.3444 0.332588 9.00067C0.524866 6.62059 0.748324 4.63025 0.997765 3.03487Z" fill="#FFFFFF"/>
</svg>
