<svg width="25" height="32" viewBox="0 0 25 32" fill="none" xmlns="http://www.w3.org/2000/svg">
<path d="M18.5425 0C20.4549 0 21.5774 0.867848 21.91 2.59835C22.253 4.33404 21.3539 5.99698 19.2077 7.58717L16.5262 9.54113C15.0555 10.2635 13.6472 10.2635 12.3065 9.54113C11.2931 8.29392 11.3087 7.20781 12.3481 6.27761H3.84628C1.7676 6.27761 0.728264 5.23827 0.728264 3.15959C0.728264 1.05493 1.7676 0 3.84628 0H18.5425ZM2.61986 17.1075C3.6592 15.7668 4.93759 15.5641 6.46541 16.5047C8.00363 17.4505 8.25308 18.6873 7.21374 20.2255C6.69926 20.9894 6.44463 21.7793 6.44463 22.5952C6.44463 23.1513 6.57454 23.6294 6.83957 24.0295C7.115 24.4193 7.71262 24.7259 8.62724 24.9441C9.54185 25.152 10.9761 25.2715 12.9301 25.2975C15.1335 25.2975 17.763 25.1416 20.8291 24.8194C22.9597 24.4868 24.0562 25.5262 24.1134 27.9374C24.1653 29.907 23.074 31.045 20.8291 31.3672C18.8595 31.7518 15.9234 31.9597 12.0155 31.9908C7.91009 31.9908 4.87522 31.2529 2.91088 29.7874C0.941328 28.3064 -0.0304538 26.1705 0.000727048 23.3851C0.0526933 21.2545 0.925738 19.1602 2.61986 17.1075Z" fill="#FFFFFF"/>
</svg>
