<svg width="27" height="33" viewBox="0 0 27 33" fill="none" xmlns="http://www.w3.org/2000/svg">
<path d="M22.616 2.10912C24.6947 2.10912 25.734 3.14846 25.734 5.22713C25.734 7.33699 24.6947 8.38672 22.616 8.38672H13.262C11.1833 8.38672 10.1439 7.34739 10.1439 5.26871C10.1439 3.16405 11.1833 2.10912 13.262 2.10912H22.616ZM9.85293 18.3852C10.5025 16.8885 11.599 16.2857 13.1372 16.5767C14.8833 17.1068 15.4861 18.0889 14.9457 19.5284C14.7794 20.0845 14.6807 20.786 14.6547 21.6279C14.6235 22.158 14.717 22.6568 14.9249 23.1245C15.1432 23.5819 15.5901 23.9664 16.2553 24.2678C16.9308 24.5588 17.9286 24.7199 19.2486 24.7459C21.3272 24.7459 22.7875 24.7043 23.6346 24.6212C25.5989 24.3458 26.6382 25.276 26.7526 27.4066C26.6954 29.4853 25.8224 30.639 24.1334 30.8572C22.3458 31.0755 20.5789 31.2002 18.8328 31.2314C15.6317 31.1482 13.1892 30.3687 11.5159 28.8825C9.85293 27.3858 8.97989 25.5462 8.89674 23.3532C8.85516 21.9553 9.17216 20.2975 9.85293 18.3852ZM0.997765 2.46249C1.37193 0.716405 2.56717 -0.0994751 4.59388 0.00965509C6.35036 0.0408359 7.17663 1.02301 7.0675 2.96138C6.87003 4.25016 6.67775 6.07939 6.48547 8.44908C6.288 10.8084 6.17887 13.2872 6.15288 15.8907C6.17887 18.6502 6.288 21.2122 6.48547 23.5819C6.67775 25.9515 6.87003 27.7756 7.0675 29.0488C7.17663 30.9923 6.35036 31.9693 4.59388 32.0005C2.56717 32.1096 1.37193 31.2937 0.997765 29.5477C0.748324 27.9575 0.524866 25.9723 0.332588 23.6026C0.135113 21.2485 0.0259831 18.7333 0 16.057V16.0155C0.0259831 13.3028 0.135113 10.772 0.332588 8.4283C0.524866 6.04821 0.748324 4.05788 0.997765 2.46249Z" fill="#FFFFFF"/>
</svg>
