<svg width="33" height="38" viewBox="0 0 33 38" fill="none" xmlns="http://www.w3.org/2000/svg">
<path d="M29.9953 4.5523C29.9953 3.95988 29.7926 3.46619 29.3925 3.07644C29.0027 2.69189 28.5195 2.49441 27.9374 2.49441C27.3658 2.49441 26.8877 2.69189 26.5031 3.07644C26.129 3.46619 25.9419 3.95988 25.9419 4.5523C25.9419 5.13433 26.129 5.62282 26.5031 6.00738C26.8877 6.38154 27.3658 6.56862 27.9374 6.56862C28.5195 6.56862 29.0027 6.38154 29.3925 6.00738C29.7926 5.62282 29.9953 5.13433 29.9953 4.5523ZM24.7363 1.30957C25.6093 0.436522 26.6746 0 27.9374 0C29.195 0 30.2707 0.446915 31.1594 1.33035C32.0428 2.21899 32.4897 3.2947 32.4897 4.5523C32.4897 5.8151 32.0428 6.88042 31.1594 7.75347C30.2707 8.62651 29.195 9.06303 27.9374 9.06303C26.6746 9.06303 25.6093 8.62651 24.7363 7.75347C23.8632 6.88042 23.4267 5.8151 23.4267 4.5523C23.4267 3.2947 23.8632 2.21379 24.7363 1.30957ZM17.0659 9.72821V7.15065C17.0659 5.27984 17.991 4.34444 19.8514 4.34444C21.7222 4.34444 22.6576 5.27984 22.6576 7.15065V9.72821H24.0087C26.1134 9.72821 27.1683 10.7831 27.1683 12.8878C27.1683 14.9977 26.1134 16.0474 24.0087 16.0474H22.6576V22.6576C23.832 23.0629 25.0896 23.6034 26.42 24.2789C27.7607 25.2247 28.0933 26.4823 27.4178 28.0621C26.6123 29.5744 25.6197 29.9537 24.4452 29.2054C24.0139 28.9144 23.4163 28.6338 22.6576 28.3532V30.8891C22.6576 32.8327 22.325 34.293 21.6598 35.2752C21.005 36.2573 20.1476 36.9277 19.0823 37.2915C18.0117 37.65 16.9724 37.8319 15.9642 37.8319C14.6443 37.8839 13.3867 37.6864 12.181 37.2291C10.9858 36.7822 9.99844 35.9923 9.20854 34.8594C8.42904 33.7265 8.04448 32.1467 8.04448 30.12C8.07046 27.4333 8.83957 25.3495 10.3518 23.8632C11.8744 22.3666 14.1142 21.717 17.0659 21.9093V16.0474H11.6198C9.50995 16.0474 8.46022 14.9977 8.46022 12.8878C8.46022 10.7831 9.50995 9.72821 11.6198 9.72821H17.0659ZM15.9642 32.1987C16.38 32.1727 16.6606 32.0064 16.8165 31.6998C16.9828 31.3828 17.0659 30.9411 17.0659 30.3695V27.2099C15.7772 26.9916 14.7898 27.1423 14.1142 27.6672C13.4335 28.1817 13.0541 28.904 12.9709 29.829C12.9138 30.7332 13.158 31.3776 13.6985 31.7622C14.2493 32.1363 15.008 32.2819 15.9642 32.1987ZM0.997765 7.3793C1.37193 5.63321 2.56717 4.81733 4.59388 4.92647C6.35036 4.95765 7.17663 5.93982 7.0675 7.87819C6.87003 9.16697 6.67775 10.9962 6.48547 13.3659C6.288 15.7252 6.17887 18.204 6.15288 20.8076C6.17887 23.567 6.288 26.129 6.48547 28.4987C6.67775 30.8684 6.87003 32.6924 7.0675 33.9656C7.17663 35.9091 6.35036 36.8861 4.59388 36.9173C2.56717 37.0264 1.37193 36.2106 0.997765 34.4645C0.748324 32.8743 0.524866 30.8891 0.332588 28.5195C0.135113 26.1653 0.0259831 23.6502 0 20.9739V20.9323C0.0259831 18.2196 0.135113 15.6888 0.332588 13.3451C0.524866 10.965 0.748324 8.97469 0.997765 7.3793Z" fill="#FFFFFF"/>
</svg>
