<svg width="30" height="30" viewBox="0 0 30 30" fill="none" xmlns="http://www.w3.org/2000/svg">
<path d="M26.6014 4.5625C26.6014 3.96875 26.3982 3.47396 25.9972 3.08333C25.6066 2.69792 25.1222 2.5 24.5389 2.5C23.9659 2.5 23.4868 2.69792 23.1014 3.08333C22.7107 3.47396 22.518 3.96875 22.518 4.5625C22.518 5.13542 22.7107 5.61458 23.1014 6C23.4868 6.39063 23.9659 6.58333 24.5389 6.58333C25.1222 6.58333 25.6066 6.39063 25.9972 6C26.3982 5.61458 26.6014 5.13542 26.6014 4.5625ZM21.3305 1.3125C22.2055 0.4375 23.2732 0 24.5389 0C25.7993 0 26.8774 0.447917 27.768 1.33333C28.6534 2.22396 29.1014 3.30208 29.1014 4.5625C29.1014 5.82813 28.6534 6.89583 27.768 7.77083C26.8774 8.64583 25.7993 9.08333 24.5389 9.08333C23.2732 9.08333 22.2055 8.64583 21.3305 7.77083C20.4555 6.89583 20.018 5.82813 20.018 4.5625C20.018 3.30208 20.4555 2.21875 21.3305 1.3125ZM0.497185 16.0833C1.59094 14.0313 2.52323 12.2813 3.28885 10.8333C4.04927 9.39063 4.79927 7.99479 5.53885 6.64583C6.28885 5.28646 6.86177 4.25 7.26802 3.54167C7.79406 2.68229 8.33573 2.08333 8.89302 1.75C9.46073 1.40625 9.9451 1.20833 10.3514 1.16667C10.768 1.125 10.9764 1.07813 10.9764 1.02083C11.7941 1.10417 12.4659 1.29167 12.9972 1.58333C13.5389 1.875 14.0284 2.33333 14.4764 2.95833C14.7941 3.51563 15.4399 4.61458 16.4139 6.25C17.3826 7.89063 18.5076 9.76042 19.7889 11.8542C21.0649 13.9531 22.2993 16.0104 23.4972 18.0208C24.6899 20.0365 25.893 22.099 27.1014 24.2083C28.3774 26.1146 28.1691 27.8021 26.4764 29.2708C24.7264 30.3125 23.1899 29.8646 21.8722 27.9167C15.3982 16.9323 12.0493 11.2448 11.8305 10.8542C11.4555 10.1198 11.2159 9.70313 11.1222 9.60417C11.0232 9.51042 10.9191 9.5625 10.8097 9.77083C10.6951 9.96875 10.5024 10.3125 10.2264 10.8125C9.98677 11.1771 9.50239 12 8.76802 13.2917C8.04406 14.5729 6.92427 16.6198 5.41385 19.4375C4.45552 21.0625 3.02843 21.3854 1.14302 20.3958C-0.122607 19.2187 -0.336149 17.7813 0.497185 16.0833Z" fill="#FFFFFF"/>
</svg>
