<svg width="32" height="36" viewBox="0 0 32 36" fill="none" xmlns="http://www.w3.org/2000/svg">
<path d="M29.1223 4.5523C29.1223 3.95988 28.9196 3.47139 28.5195 3.09723C28.1297 2.71267 27.6464 2.5152 27.0644 2.5152C26.4927 2.5152 26.0146 2.71267 25.6301 3.09723C25.2559 3.47139 25.0688 3.95988 25.0688 4.5523C25.0688 5.13433 25.2559 5.62282 25.6301 6.00738C26.0146 6.38154 26.4927 6.56862 27.0644 6.56862C27.6464 6.56862 28.1297 6.38154 28.5195 6.00738C28.9196 5.62282 29.1223 5.13433 29.1223 4.5523ZM23.8632 1.30957C24.7467 0.436522 25.8172 0 27.0644 0C28.322 0 29.3977 0.446916 30.2863 1.33035C31.1698 2.21899 31.6167 3.2947 31.6167 4.5523C31.6167 5.8151 31.1698 6.88042 30.2863 7.75347C29.3977 8.62651 28.322 9.06303 27.0644 9.06303C25.8172 9.06303 24.7467 8.62651 23.8632 7.75347C22.9902 6.88042 22.5536 5.8151 22.5536 4.5523C22.5536 3.2947 22.9902 2.21379 23.8632 1.30957ZM10.1232 4.46916C12.2278 4.46916 13.2827 5.58125 13.2827 7.79504C13.2256 9.49955 12.3369 11.2249 10.622 12.9709C9.05264 15.0236 7.96653 16.7697 7.35852 18.2092C6.74531 19.6383 6.40233 21.0518 6.31918 22.4497C6.23603 24.7674 6.58941 26.5135 7.3793 27.688C8.1692 28.8676 9.44239 29.4964 11.2041 29.5796C13.0853 29.7459 14.5923 29.1794 15.7148 27.8751C16.8373 26.5603 17.4089 24.1906 17.4401 20.766C17.4089 17.0659 16.8893 12.9398 15.8811 8.37707C15.5173 6.54783 16.0578 5.45653 17.5025 5.09276C19.1238 4.81733 20.2723 5.25386 20.9531 6.40233C21.5039 7.27537 22.2211 8.34589 23.0941 9.60349C23.6865 10.4765 25.0533 11.9836 27.1891 14.1142C28.3947 15.5433 28.4467 17.0192 27.3554 18.5418C25.9523 19.9709 24.6999 20.0281 23.593 18.7081C23.4527 18.6249 23.0785 18.0637 22.4705 17.0244C22.6628 17.8143 22.8239 18.6146 22.9486 19.4148C23.0733 20.2047 23.1357 20.9531 23.1357 21.6598C23.1357 22.8395 22.9694 24.2374 22.6368 25.8587C22.3042 27.4697 21.7066 29.0547 20.8491 30.6189C19.9865 32.1727 18.7601 33.4459 17.1699 34.4437C15.5901 35.4414 13.5582 35.9247 11.0793 35.8988C9.00067 35.7844 7.27537 35.2855 5.90344 34.4021C4.53152 33.5187 3.39864 32.4014 2.5152 31.0554C1.62656 29.6991 1.06013 28.2596 0.810684 26.7318C0.561243 25.2092 0.462505 23.7801 0.519669 22.4497C0.654783 20.2619 1.18485 18.1572 2.09946 16.1305C3.01408 14.109 4.22491 12.3421 5.73715 10.8299H3.15959C1.04973 10.8299 0 9.78018 0 7.67032C0 5.53967 1.04973 4.46916 3.15959 4.46916H10.1232Z" fill="#FFFFFF"/>
</svg>
