<svg width="27" height="35" viewBox="0 0 27 35" fill="none" xmlns="http://www.w3.org/2000/svg">
<path d="M0 7.9494C0 5.87073 1.03934 4.83139 3.11802 4.83139H8.43943L9.5827 2.04596C10.1647 0.424592 11.4223 -0.230192 13.3659 0.0712164C15.3614 0.476558 16.1773 1.56786 15.8187 3.35553L15.2159 4.83139H23.7801C25.8587 4.83139 26.8981 5.87073 26.8981 7.9494C26.8981 10.0593 25.8587 11.109 23.7801 11.109H12.9917C12.6436 11.9301 11.8952 13.3332 10.7468 15.3287C11.4535 15.0793 12.181 14.8662 12.9294 14.6843C13.6881 14.492 14.426 14.3517 15.1328 14.2686C18.5002 14.0503 21.2129 14.7363 23.2812 16.3265C25.3443 17.9063 26.42 20.2552 26.5031 23.3732C26.5291 25.9092 25.7964 28.1645 24.2997 30.1289C22.8031 32.0828 20.4386 33.2885 17.2114 33.7458C13.9947 34.2135 10.4142 34.2031 6.46469 33.7042C4.68742 33.3716 3.81437 32.2232 3.84555 30.2536C4.01185 28.3412 4.99402 27.4682 6.79727 27.6345C8.36148 27.7748 10.2479 27.8579 12.4513 27.8839C14.6651 27.9151 16.328 27.7176 17.4401 27.3019C18.547 26.8758 19.3213 26.3197 19.7682 25.6389C20.2255 24.9478 20.4386 24.1787 20.4126 23.3316C20.4386 22.2091 20.0073 21.3361 19.1238 20.7125C18.2352 20.0785 16.7385 19.8394 14.6339 20.0057C12.6072 20.2032 10.3778 20.832 7.94055 21.8973C5.88785 23.0198 4.35483 22.9678 3.34667 21.731C2.44245 20.7748 2.28654 19.6835 2.86857 18.4467C4.66663 14.7779 5.82549 12.3302 6.33997 11.109H3.11802C1.03934 11.109 0 10.0697 0 7.99098V7.9494Z" fill="#C8B0FE"/>
</svg>
