<svg width="29" height="34" viewBox="0 0 29 34" fill="none" xmlns="http://www.w3.org/2000/svg">
<path d="M7.6566 2.72344C8.19705 0.5928 9.61575 -0.290637 11.9179 0.0835249C13.9134 0.748702 14.5682 2.06866 13.8926 4.03301C12.7701 7.47322 11.8191 10.4665 11.0448 13.0129C11.18 12.7635 11.8659 12.3841 13.1027 11.8696C14.3343 11.3448 15.5971 11.3603 16.8859 11.9112C18.1851 12.4517 18.9854 13.5014 19.2764 15.05C19.5674 16.5882 19.6714 18.1836 19.5882 19.831C19.5051 21.3848 19.531 22.7567 19.6714 23.9467C19.8065 25.142 20.191 25.776 20.8146 25.8591C21.5733 25.8591 22.6543 25.2043 24.0574 23.8844C25.1487 22.7619 26.4115 22.7619 27.8406 23.8844C28.9734 25.3966 29.015 26.8725 27.9653 28.312C27.1858 29.3825 26.4374 30.2607 25.7203 30.9519C24.998 31.6275 24.1457 32.2199 23.1635 32.7188C22.1762 33.228 21.0952 33.4879 19.9208 33.4879C17.4783 33.3476 15.8154 32.3342 14.932 30.453C14.0433 28.5718 13.6692 26.0826 13.8095 22.9905C13.9186 21.4263 13.8978 20.1843 13.7471 19.2697C13.5912 18.3551 12.9676 18.0381 11.8763 18.3135C11.2111 18.4954 10.5979 18.9163 10.0471 19.5815C9.49103 20.2363 9.0597 20.9846 8.7583 21.8265C8.45169 22.6735 8.17627 23.4998 7.92683 24.3001C7.57865 25.7136 6.99662 28.0365 6.18074 31.2637C5.73382 33.202 4.36189 33.9712 2.06496 33.571C0.402014 32.9318 -0.257966 31.669 0.0902123 29.7878C0.474767 28.0989 1.07758 25.6668 1.89866 22.4917C2.71454 19.3217 3.67073 15.7983 4.76724 11.932C5.85854 8.05525 6.82513 4.98401 7.6566 2.72344Z" fill="#C8B0FE"/>
</svg>
