<svg width="80" height="93" viewBox="0 0 80 93" fill="none" xmlns="http://www.w3.org/2000/svg">
<path d="M73.7252 11.1891C73.7252 9.73296 73.2271 8.51953 72.2436 7.56156C71.2856 6.61637 70.0977 6.131 68.6672 6.131C67.2621 6.131 66.087 6.61637 65.1418 7.56156C64.2222 8.51953 63.7624 9.73296 63.7624 11.1891C63.7624 12.6196 64.2222 13.8203 65.1418 14.7655C66.087 15.6851 67.2621 16.145 68.6672 16.145C70.0977 16.145 71.2856 15.6851 72.2436 14.7655C73.2271 13.8203 73.7252 12.6196 73.7252 11.1891ZM60.799 3.21877C62.9449 1.07292 65.5633 0 68.6672 0C71.7582 0 74.4022 1.09847 76.5864 3.26987C78.7578 5.45403 79.8562 8.09803 79.8562 11.1891C79.8562 14.2929 78.7578 16.9113 76.5864 19.0572C74.4022 21.203 71.7582 22.276 68.6672 22.276C65.5633 22.276 62.9449 21.203 60.799 19.0572C58.6532 16.9113 57.5803 14.2929 57.5803 11.1891C57.5803 8.09803 58.6532 5.44126 60.799 3.21877ZM41.9462 23.9109V17.5755C41.9462 12.9773 44.2198 10.6782 48.7925 10.6782C53.3908 10.6782 55.6899 12.9773 55.6899 17.5755V23.9109H59.0108C64.1839 23.9109 66.7768 26.5038 66.7768 31.6768C66.7768 36.8626 64.1839 39.4427 59.0108 39.4427H55.6899V55.6899C58.5766 56.6862 61.6676 58.0146 64.9375 59.675C68.2329 61.9997 69.0503 65.0908 67.3899 68.9737C65.4101 72.6906 62.9704 73.6231 60.0838 71.7838C59.0236 71.0685 57.5547 70.3787 55.6899 69.689V75.9222C55.6899 80.6992 54.8724 84.2884 53.2375 86.7025C51.6281 89.1166 49.5206 90.7643 46.9021 91.6584C44.2709 92.5397 41.7163 92.9868 39.2384 92.9868C35.9941 93.1145 32.903 92.6291 29.9397 91.5051C27.0019 90.4067 24.5751 88.4652 22.6336 85.6807C20.7177 82.8962 19.7725 79.0132 19.7725 74.0318C19.8363 67.4282 21.7267 62.3063 25.4436 58.6532C29.1861 54.9746 34.6912 53.378 41.9462 53.8506V39.4427H28.5602C23.3744 39.4427 20.7943 36.8626 20.7943 31.6768C20.7943 26.5038 23.3744 23.9109 28.5602 23.9109H41.9462ZM39.2384 79.141C40.2602 79.0771 40.9499 78.6684 41.3331 77.9147C41.7419 77.1356 41.9462 76.0499 41.9462 74.6449V66.879C38.7786 66.3425 36.3517 66.7129 34.6912 68.003C33.018 69.2675 32.0855 71.0429 31.8812 73.3165C31.7407 75.539 32.341 77.1228 33.6694 78.068C35.0233 78.9877 36.8882 79.3453 39.2384 79.141ZM2.4524 18.1375C3.37205 13.8458 6.30982 11.8405 11.2913 12.1087C15.6085 12.1854 17.6394 14.5994 17.3712 19.3637C16.8858 22.5314 16.4132 27.0275 15.9406 32.8519C15.4552 38.6508 15.187 44.7435 15.1231 51.1427C15.187 57.9252 15.4552 64.2222 15.9406 70.0466C16.4132 75.8711 16.8858 80.3544 17.3712 83.4837C17.6394 88.2608 15.6085 90.6621 11.2913 90.7388C6.30982 91.007 3.37205 89.0016 2.4524 84.7099C1.8393 80.8014 1.29006 75.9222 0.817466 70.0977C0.332094 64.3116 0.0638637 58.1295 0 51.5515V51.4493C0.0638637 44.7818 0.332094 38.5614 0.817466 32.8008C1.29006 26.9508 1.8393 22.0588 2.4524 18.1375Z" fill="#C8B0FE"/>
<path d="M80 11C80 17.0751 75.0751 22 69 22C62.9249 22 58 17.0751 58 11C58 4.92487 62.9249 0 69 0C75.0751 0 80 4.92487 80 11Z" fill="#C8B0FE"/>
<path d="M73.8399 11C73.8399 13.6731 71.673 15.84 68.9999 15.84C66.3269 15.84 64.1599 13.6731 64.1599 11C64.1599 8.32698 66.3269 6.16003 68.9999 6.16003C71.673 6.16003 73.8399 8.32698 73.8399 11Z" fill="white"/>
<path d="M63.7198 7.48003C63.7198 8.20905 63.1288 8.80003 62.3998 8.80003C61.6708 8.80003 61.0798 8.20905 61.0798 7.48003C61.0798 6.75102 61.6708 6.16003 62.3998 6.16003C63.1288 6.16003 63.7198 6.75102 63.7198 7.48003Z" fill="#3E3E3E"/>
<path d="M76.92 7.48003C76.92 8.20905 76.329 8.80003 75.6 8.80003C74.871 8.80003 74.28 8.20905 74.28 7.48003C74.28 6.75102 74.871 6.16003 75.6 6.16003C76.329 6.16003 76.92 6.75102 76.92 7.48003Z" fill="#3E3E3E"/>
</svg>
