<svg width="32" height="38" viewBox="0 0 32 38" fill="none" xmlns="http://www.w3.org/2000/svg">
<path d="M16.7541 22.7823V19.5396H11.703C9.84254 19.5396 8.91753 18.6042 8.91753 16.7334C8.91753 14.8781 9.84254 13.9479 11.703 13.9479H16.7541V10.4557H11.6614C9.83214 10.4557 8.91753 9.54113 8.91753 7.71189C8.91753 5.85667 9.83214 4.92647 11.6614 4.92647H22.2834C22.2834 4.81733 22.2834 4.69261 22.2834 4.5523C22.2834 3.2947 22.7199 2.21379 23.593 1.30957C24.466 0.436522 25.5314 0 26.7941 0C28.0517 0 29.1275 0.446915 30.0161 1.33035C30.8995 2.21899 31.3465 3.2947 31.3465 4.5523C31.3465 5.8151 30.8995 6.88042 30.0161 7.75347C29.1275 8.62651 28.0517 9.06303 26.7941 9.06303C26.737 9.06303 26.6694 9.06303 26.5863 9.06303C26.2121 9.99324 25.3806 10.4557 24.0919 10.4557H22.325V13.9479H24.0503C25.9055 13.9479 26.8357 14.8781 26.8357 16.7334C26.8357 18.6042 25.9055 19.5396 24.0503 19.5396H22.325V23.5098C23.2812 23.8164 24.5388 24.3517 26.1082 25.1104C27.2982 25.7652 27.6256 26.9137 27.0852 28.561C26.3472 30.0057 25.3079 30.3279 23.9671 29.538C23.6346 29.4029 23.0837 29.2158 22.325 28.9768V31.3465C22.325 33.2069 21.9612 34.6048 21.2441 35.5454C20.5373 36.486 19.6747 37.1304 18.6665 37.4785C17.6532 37.8215 16.6398 37.9982 15.6317 37.9982C14.3273 38.0502 13.0749 37.8631 11.8692 37.437C10.6636 37.0212 9.66585 36.2625 8.87595 35.1712C8.09645 34.0799 7.71189 32.5625 7.71189 30.6189C7.73788 28.0985 8.50699 26.1186 10.0192 24.6739C11.5419 23.2188 13.7868 22.59 16.7541 22.7823ZM15.6317 32.5729C16.0474 32.5469 16.3384 32.3962 16.5047 32.1156C16.671 31.8245 16.7541 31.4192 16.7541 30.8891V27.8958C15.351 27.7036 14.3325 27.8491 13.6985 28.3324C13.0749 28.8209 12.7215 29.4964 12.6384 30.3695C12.5812 31.2165 12.7943 31.8142 13.2827 32.1571C13.7816 32.4897 14.5611 32.63 15.6317 32.5729ZM0.997765 7.5456C1.37193 5.79951 2.56717 4.98363 4.59388 5.09276C6.35036 5.12394 7.17663 6.10611 7.0675 8.04448C6.87003 9.33326 6.67775 11.1625 6.48547 13.5322C6.288 15.8915 6.17887 18.3703 6.15288 20.9739C6.17887 23.7333 6.288 26.2953 6.48547 28.665C6.67775 31.0347 6.87003 32.8587 7.0675 34.1319C7.17663 36.0754 6.35036 37.0524 4.59388 37.0836C2.56717 37.1927 1.37193 36.3769 0.997765 34.6308C0.748324 33.0406 0.524866 31.0554 0.332588 28.6857C0.135113 26.3316 0.0259831 23.8164 0 21.1401V21.0986C0.0259831 18.3859 0.135113 15.8551 0.332588 13.5114C0.524866 11.1313 0.748324 9.14098 0.997765 7.5456ZM28.852 4.5523C28.852 3.95988 28.6494 3.47139 28.2492 3.09723C27.8595 2.71267 27.3762 2.5152 26.7941 2.5152C26.2225 2.5152 25.7444 2.71267 25.3599 3.09723C24.9701 3.47139 24.7778 3.95988 24.7778 4.5523C24.7778 5.13433 24.9701 5.62282 25.3599 6.00738C25.7444 6.38154 26.2225 6.56862 26.7941 6.56862C27.3762 6.56862 27.8595 6.38154 28.2492 6.00738C28.6494 5.62282 28.852 5.13433 28.852 4.5523Z" fill="#C8B0FE"/>
</svg>
