<svg width="30" height="37" viewBox="0 0 30 37" fill="none" xmlns="http://www.w3.org/2000/svg">
<path d="M6.46549 3.53375C7.13067 3.4506 7.94655 3.40383 8.91833 3.38824C9.88492 3.37785 11.2465 3.39864 12.9925 3.4506C14.7386 3.50777 16.3704 3.62729 17.8982 3.80398C19.4208 3.98586 20.1848 4.07421 20.1848 4.07421C20.2783 4.10539 20.3718 4.12617 20.455 4.13657C20.5641 3.05566 21.0058 2.11505 21.7853 1.30957C22.6584 0.436522 23.7185 0 24.9657 0C26.2233 0 27.299 0.446916 28.1877 1.33035C29.0867 2.21899 29.5388 3.2947 29.5388 4.5523C29.5388 5.8151 29.0867 6.88042 28.1877 7.75347C27.299 8.62651 26.2233 9.06303 24.9657 9.06303C24.0927 9.06303 23.3132 8.86556 22.6376 8.46022C22.1907 9.95686 21.2085 10.5753 19.6859 10.3102C16.968 9.95167 14.723 9.75939 12.951 9.72821C10.2487 9.70223 8.08686 9.72821 6.46549 9.81136C4.55311 9.8945 3.59692 8.81359 3.59692 6.56862C3.6229 4.57309 4.57909 3.56493 6.46549 3.53375ZM0.00080635 30.5981C0.0943475 27.7607 0.229461 25.5781 0.395755 24.0503C0.588032 22.5121 0.998571 20.3503 1.62217 17.5648C2.08988 15.7096 3.12922 14.8833 4.74019 15.0912C6.55384 15.5381 7.26578 16.5255 6.88123 18.0637C6.30959 20.9063 5.95622 23.0473 5.8211 24.4868C5.68079 26.025 5.59245 27.4333 5.55087 28.7065C5.5093 29.9693 5.48851 30.5981 5.48851 30.5981C5.43135 32.3026 4.47516 33.1549 2.61994 33.1549C0.842671 33.1029 -0.0303731 32.2507 0.00080635 30.5981ZM10.6644 16.7334C10.0512 15.1016 10.654 13.9583 12.4729 13.3035C14.2709 12.8358 15.5285 13.4283 16.2353 15.0912C16.9108 16.6294 17.5293 18.4275 18.0853 20.475C18.6517 22.5277 19.0727 24.5232 19.3533 26.4616C19.7119 29.1534 19.5508 31.2113 18.8752 32.6352C18.21 34.0487 17.3058 35.0101 16.1729 35.5246C15.0348 36.0495 13.6369 36.2002 11.974 35.9819C10.5709 35.8156 9.42241 35.4207 8.52338 34.7971C7.2346 33.872 6.90721 32.5521 7.5464 30.8476C8.3363 29.299 9.69784 28.8313 11.6414 29.4549C12.2078 29.486 12.66 29.3301 12.9925 28.9975C13.3251 28.6546 13.4343 27.8075 13.3251 26.4616C13.1848 25.3962 12.9354 24.1282 12.5768 22.6576C12.2286 21.1765 11.5894 19.2018 10.6644 16.7334ZM27.0652 30.5981C27.0912 32.2507 26.2181 33.1029 24.4461 33.1549C22.5856 33.1549 21.6294 32.3026 21.5775 30.5981L21.5359 28.6857C21.4787 27.4281 21.38 26.025 21.2449 24.4868C21.1046 23.0473 20.7512 20.9063 20.1848 18.0637C19.795 16.5255 20.5018 15.5381 22.305 15.0912C23.9264 14.8833 24.9657 15.7096 25.423 17.5648C26.057 20.3503 26.4676 22.5121 26.6494 24.0503C26.8157 25.5781 26.9509 27.7607 27.0652 30.5981ZM27.0236 4.5523C27.0236 3.95988 26.8209 3.47139 26.4208 3.09723C26.031 2.71267 25.5477 2.5152 24.9657 2.5152C24.3941 2.5152 23.916 2.71267 23.5314 3.09723C23.1573 3.47139 22.9702 3.95988 22.9702 4.5523C22.9702 5.13433 23.1573 5.62282 23.5314 6.00738C23.916 6.38154 24.3941 6.56862 24.9657 6.56862C25.5477 6.56862 26.031 6.38154 26.4208 6.00738C26.8209 5.62282 27.0236 5.13433 27.0236 4.5523Z" fill="#C8B0FE"/>
</svg>
